<svg width="1080" height="1080" viewBox="0 0 1080 1080" fill="none" xmlns="http://www.w3.org/2000/svg">
<rect width="1080" height="1080" fill="#F1F7F9"/>
<path d="M933.838 489.516L639.593 352.869C618.556 343.1 593.544 349.77 580.165 368.717L282.442 790.353C265.587 814.223 273.792 847.489 299.814 860.784L600.699 1014.51C622.434 1025.61 649.041 1018.64 662.534 998.302L953.618 559.589C969.865 535.101 960.492 501.894 933.838 489.516Z" fill="#7D8D92"/>
<path d="M933.245 488.393L630.753 348.038C613.23 339.907 592.4 345.461 581.252 361.236L280.154 787.285C266.093 807.181 272.934 834.92 294.633 845.997L603.726 1003.78C621.832 1013.02 643.99 1007.22 655.235 990.282L949.731 546.806C963.285 526.395 955.47 498.706 933.245 488.393Z" fill="#EAEEEF" stroke="#59696D" stroke-width="4"/>
<path d="M569.343 77.6201L598.639 318.686C599.837 328.542 597.327 338.49 591.597 346.598L286.384 778.47C270.384 801.109 236.766 801.004 220.908 778.265L112.189 622.365C101.771 607.427 102.76 587.337 114.593 573.494L544.803 70.2123C552.721 60.9495 567.873 65.5234 569.343 77.6201Z" fill="#707D81"/>
<path d="M556.715 91.7055L579.096 326.458C580.002 335.963 577.478 345.478 571.981 353.285L293.814 748.304C277.831 771.001 244.154 770.915 228.287 748.136L140.133 621.582C129.743 606.667 130.717 586.621 142.504 572.783L553.202 90.5984C554.348 89.2531 556.548 89.9462 556.715 91.7055Z" fill="#59696D"/>
<path fill-rule="evenodd" clip-rule="evenodd" d="M578.738 322.701L579.096 326.458C580.002 335.963 577.479 345.478 571.981 353.285L293.814 748.304C277.831 771.001 244.154 770.915 228.287 748.136L140.133 621.582C129.743 606.667 130.717 586.621 142.504 572.783L420.839 246H421.5L578.738 322.701Z" fill="#7D8D92"/>
<path d="M704.398 684.356L774.666 720.599C781.027 723.88 783.12 731.965 779.149 737.92L690.747 870.524C687.369 875.59 680.734 877.324 675.31 874.558L600.824 836.57C594.308 833.247 592.255 824.918 596.481 818.947L689.102 688.088C692.558 683.205 699.082 681.614 704.398 684.356Z" fill="#F1F7F9" stroke="white" stroke-width="4"/>
<path d="M662.479 868.253L769.122 717.583L774.788 720.551C781.102 723.859 783.158 731.907 779.204 737.838L690.691 870.607C687.334 875.643 680.753 877.391 675.34 874.684L662.479 868.253Z" fill="#F1F7F9" stroke="#D1DFE2" stroke-width="4"/>
<path d="M662.485 868.257L717.119 791.579L736.601 801.743L690.691 870.607C687.334 875.643 680.753 877.391 675.34 874.684L662.485 868.257Z" fill="#F1F7F9" stroke="#D1DFE2" stroke-width="4"/>
<path d="M792.537 458.814L665.982 398.034C659.905 395.116 652.612 396.942 648.628 402.379L347.228 813.724C342.128 820.684 344.477 830.555 352.165 834.472L483.726 901.51C489.914 904.663 497.479 902.803 501.499 897.139L797.892 479.537C802.914 472.462 800.357 462.57 792.537 458.814Z" fill="#D1DBDE"/>
<path fill-rule="evenodd" clip-rule="evenodd" d="M196.127 701.967L140.133 621.582C129.743 606.667 130.717 586.621 142.504 572.783L403.927 265.856L496.395 310.266C504.587 314.2 506.918 324.775 501.139 331.788L196.127 701.967Z" fill="#59696D"/>
</svg>
